<svg id="M_Square_Brackets" data-name="M Square Brackets" xmlns="http://www.w3.org/2000/svg" viewBox="0 0 800 800"><defs><style>.cls-1{fill:#fff;}</style></defs><polygon class="cls-1" points="800 0 496 0 496 120 670 120 670 680 496 680 496 800 800 800 800 0"/><polygon class="cls-1" points="0 0 304 0 304 120 130 120 130 680 304 680 304 800 0 800 0 0"/><path class="cls-1" d="M685.73,300l14.14,14.16V368.5L570.53,497.89h-142L300.2,369.46v-56.4l13-13h55.82L498.71,429.79,628.42,300Z" transform="translate(-100 -100)"/><path class="cls-1" d="M300,481.4,340.44,441h18.91l41.76,41.77V659.25c-13.5,13.43-27,26.84-40.89,40.71H341.76L300,658.18Z" transform="translate(-100 -100)"/><path class="cls-1" d="M601.12,479.24c12.69-12.68,25.39-25.36,38.33-38.3h21.11L700,480.4v179L659.26,700H640.43l-39.31-39.33Z" transform="translate(-100 -100)"/><path class="cls-1" d="M447.26,545.21l38.13-38.11a8.5,8.5,0,0,1,1.91-.39c6.91.07,14.53-1.59,20.52.81,5.62,2.26,9.52,8.81,14.18,13.47l24.12,24.13v114L505.28,700H487.82l-40.55-40.51Q447.26,602.33,447.26,545.21Z" transform="translate(-100 -100)"/></svg>